<?xml version="1.0" encoding="utf-8"?>
<!-- Generator: Adobe Illustrator 23.1.0, SVG Export Plug-In . SVG Version: 6.00 Build 0)  -->
<svg version="1.1" id="Слой_1" xmlns="http://www.w3.org/2000/svg" xmlns:xlink="http://www.w3.org/1999/xlink" x="0px" y="0px"
	 viewBox="0 0 450 450" style="enable-background:new 0 0 450 450;" xml:space="preserve">
<style type="text/css">
	.st0{fill:#FFFFFF;}
</style>
<g>
	<g>
		<path d="M0,450C0,300.03,0,150.06,0,0c149.93,0,299.89,0,450,0c0,149.94,0,299.97,0,450C300.06,450,150.04,450,0,450z
			 M225.14,379.21c-1.67,0-3.33,0.04-5-0.01c-2-0.06-4-0.11-5.99-0.31c-25.93-2.58-48.49-12.15-65.19-32.78
			c-29.45-36.38-17.85-89.11,23.94-110.04c6.6-3.31,9.57-1.46,9.77,6.1c0.09,3.5-0.2,7.06,0.39,10.47c0.26,1.49,2.31,2.68,3.54,4
			c1.18-1.2,3.29-2.33,3.38-3.61c0.4-5.47,0.73-11.04,0.09-16.45c-0.87-7.37-8.42-12.01-15.63-10.08c-2.54,0.68-5.07,1.77-7.32,3.14
			c-33.2,20.27-46.4,46.71-40.78,87.58c2.78,20.2,13.63,36.23,29.41,48.99c17.37,14.05,37.94,20.18,59.54,22.09
			c10.4,0.92,21.29-1.22,31.69-3.31c26.76-5.37,48.89-18.33,63.55-42.08c18.64-30.19,19.68-84.35-33-112.72
			c-17.72-9.54-36.66-15.92-56.24-20.42c-16.72-3.84-32.65-9.54-46.51-19.99c-30.71-23.15-32.99-64.46-5.07-90.94
			c30.14-28.58,83.31-26.35,111.02,4.66c19.93,22.31,21.23,53.5,2.47,76.4c-5.08,6.2-12.01,10.9-18.22,16.15
			c-2.05,1.73-5.01,3.07-3.1,6.28c2.05,3.44,4.87,1.74,7.35,0.22c1.99-1.22,3.92-2.53,5.83-3.87c38.51-27.12,40.35-80.2,3.8-109.85
			c-32.12-26.06-80.25-25.25-112.24,1.9c-37.2,31.58-33.96,82.59,6.94,109.33c15.66,10.24,33.23,15.16,51.3,18.84
			c22.7,4.61,43.76,12.99,61.71,28.06c36.82,30.91,34.92,86.83-3.97,115.07C265.5,374.42,245.99,379.16,225.14,379.21z"/>
		<path class="st0" d="M225.14,379.21c20.85-0.05,40.36-4.79,57.46-17.2c38.89-28.23,40.79-84.15,3.97-115.07
			c-17.95-15.07-39.01-23.44-61.71-28.06c-18.08-3.68-35.65-8.6-51.3-18.84c-40.89-26.74-44.14-77.75-6.94-109.33
			c31.99-27.15,80.12-27.97,112.24-1.9c36.55,29.65,34.71,82.73-3.8,109.85c-1.91,1.34-3.84,2.65-5.83,3.87
			c-2.48,1.52-5.3,3.22-7.35-0.22c-1.91-3.21,1.05-4.54,3.1-6.28c6.21-5.24,13.14-9.95,18.22-16.15
			c18.77-22.9,17.47-54.09-2.47-76.4c-27.71-31.01-80.88-33.24-111.02-4.66c-27.92,26.48-25.64,67.8,5.07,90.94
			c13.86,10.45,29.79,16.15,46.51,19.99c19.59,4.5,38.53,10.87,56.24,20.42c52.68,28.38,51.64,82.53,33,112.72
			c-14.66,23.75-36.8,36.71-63.55,42.08c-10.4,2.09-21.29,4.23-31.69,3.31c-21.59-1.91-42.17-8.04-59.54-22.09
			c-15.78-12.76-26.63-28.79-29.41-48.99c-5.63-40.87,7.57-67.31,40.78-87.58c2.25-1.37,4.78-2.46,7.32-3.14
			c7.2-1.93,14.75,2.72,15.63,10.08c0.64,5.41,0.31,10.99-0.09,16.45c-0.09,1.28-2.2,2.41-3.38,3.61c-1.24-1.32-3.28-2.51-3.54-4
			c-0.59-3.41-0.3-6.97-0.39-10.47c-0.2-7.55-3.17-9.4-9.77-6.1c-41.79,20.93-53.4,73.66-23.94,110.04
			c16.7,20.63,39.26,30.2,65.19,32.78c1.99,0.2,3.99,0.25,5.99,0.31C221.81,379.25,223.47,379.21,225.14,379.21z"/>
	</g>
</g>
<g>
</g>
<g>
</g>
<g>
</g>
<g>
</g>
<g>
</g>
<g>
</g>
<g>
</g>
<g>
</g>
<g>
</g>
<g>
</g>
<g>
</g>
<g>
</g>
<g>
</g>
<g>
</g>
<g>
</g>
</svg>
